<svg width="24" height="24" viewBox="0 0 24 24" fill="none" xmlns="http://www.w3.org/2000/svg">
<path d="M8.5176 16.1087L14.8946 16.1168C14.9829 16.1168 15.1349 16.1168 15.2259 16.1168C15.2222 16.0111 15.2185 15.9055 15.2147 15.7965C15.2194 14.8654 15.1175 13.9076 15.6827 13.4421C16.5247 12.7487 17.5546 12.9315 18.5071 13.1325C19.0604 13.297 19.4164 13.5744 19.6874 14.0667C20.2587 15.4853 20.1599 17.913 19.6045 19.3254C19.2617 20.0522 18.8486 20.4992 18.0725 20.7934C17.4375 21.0148 16.7819 21.0032 16.1151 21.0127C16.0087 21.0145 15.9023 21.0163 15.7927 21.0181C15.504 21.0228 15.2153 21.0272 14.9266 21.0312C14.7464 21.0337 14.5663 21.0364 14.3862 21.039C12.8392 21.0617 11.292 21.0811 9.74475 21.0862C9.56925 21.0868 9.39383 21.0877 9.21833 21.0889C5.40364 21.1129 5.40364 21.1129 4.31275 20.2917C3.38835 19.4168 3.36286 18.1747 3.34753 16.998C3.34664 16.8114 3.34691 16.6248 3.34798 16.438C3.34896 16.2482 3.34798 16.0585 3.34691 15.8687C3.34477 14.1688 3.34477 14.1688 3.99098 13.5253C4.62008 13.0362 5.54732 13.0084 6.32375 13.0631C6.8942 13.1334 7.36206 13.2389 7.76663 13.6504C8.36337 14.403 8.21113 15.2078 8.18003 16.1087C8.32972 16.1087 8.36729 16.1087 8.5176 16.1087Z" fill="#AFD2F0"/>
<path fill-rule="evenodd" clip-rule="evenodd" d="M8.29698 8.4681C8.29702 8.46303 8.29729 8.45693 8.29765 8.44858ZM14.7048 4.22948C14.7048 4.22948 14.7048 3.7807 14.0925 3.28829ZM14.726 4.93435C14.7255 4.70967 14.7048 4.49794 14.7048 4.22948Z" fill="#AFD2F0"/>
<path fill-rule="evenodd" clip-rule="evenodd" d="M8.30016 7.21919L8.30005 7.14365C8.30005 7.16948 8.30011 7.19437 8.30016 7.21919ZM8.30019 7.08041C8.30009 7.10222 8.30005 7.12343 8.30005 7.14365L8.30019 7.08041Z" fill="#AFD2F0"/>
<path d="M8.29765 8.44858C8.29859 8.42702 8.30019 8.39048 8.30019 8.31807V7.78929L8.30022 7.67043C8.30026 7.55574 8.30031 7.41075 8.30019 7.34626C8.30036 7.30147 8.30026 7.26032 8.30016 7.21919L8.30005 7.14365L8.30019 7.08041C8.30036 7.03281 8.30028 6.98318 8.30019 6.93318C8.3001 6.88281 8.30001 6.8317 8.30019 6.78229C8.31472 4.71755 8.45172 3.68626 8.93501 3.28805C9.41829 2.88983 13.4801 2.79588 14.0925 3.28829C14.7048 3.7807 14.7048 4.22948 14.7048 4.22948C14.7048 4.49794 14.7255 4.70967 14.726 4.93435C14.727 5.34635 14.7278 5.71145 14.7249 6.12578C14.7249 6.16008 14.7212 6.18781 14.7175 6.21575C14.7138 6.24411 14.71 6.27268 14.7099 6.30852C14.7095 6.50177 14.7086 6.69495 14.7076 6.88818L14.7072 6.96112C14.7067 7.10992 14.7063 7.25863 14.706 7.40743C14.7059 7.44767 14.7053 7.49242 14.7048 7.54019C14.7003 7.92208 14.6935 8.49647 14.8799 8.49336L15.0968 8.48977L15.3844 8.48695L15.6682 8.48345C16.2097 8.5025 16.6648 8.62123 17.0971 8.93642C17.5027 9.34295 17.7267 9.79266 17.6942 10.3392C17.5052 11.0931 17.0329 11.7707 16.5156 12.3535C16.3004 12.5999 16.0986 12.853 15.8971 13.1096C15.3955 13.7479 14.8744 14.3629 14.327 14.9654C13.9019 15.4335 13.4887 15.9127 13.0965 16.4062C12.7879 16.757 12.4075 16.9708 11.9552 17.1153C11.3535 17.1265 10.7987 17.079 10.323 16.6988C9.94747 16.3441 9.61946 15.9506 9.29323 15.5543C9.13411 15.3624 8.97217 15.1727 8.81022 14.983L8.75585 14.9193C8.17364 14.2362 7.59776 13.5486 7.03622 12.8497L6.90582 12.6884C5.50804 10.9512 5.50805 10.9512 5.56063 9.91541C5.66706 9.42869 5.96012 9.06481 6.35659 8.75491C7.03863 8.49037 7.57099 8.47328 8.30019 8.49429C8.29636 8.47813 8.29659 8.47287 8.29765 8.44858Z" fill="#AFD2F0"/>
<path d="M5.91121 14.2056C6.0261 14.2032 6.14099 14.2007 6.25936 14.1982C6.63274 14.2441 6.88251 14.3895 7.02537 14.5793C7.16822 14.7691 7.1145 16.3441 7.1145 17.2273C10.0853 17.2273 13.0561 17.2273 16.1169 17.2273C16.1169 16.438 16.0611 15.542 16.1169 14.8356C16.1726 14.1291 16.5449 14.2239 16.5669 14.2239C16.5889 14.2239 17.0849 14.2218 17.3034 14.2216C17.4208 14.2204 17.5381 14.2192 17.659 14.218C18.0435 14.2409 18.2981 14.2817 18.5783 14.5425C18.7532 14.8368 18.7383 15.1153 18.7341 15.4448C18.7342 15.4787 18.7342 15.4787 18.7343 15.6498C18.734 15.793 18.7332 15.9362 18.7317 16.0793C18.7296 16.2958 18.7299 16.5122 18.7304 16.7288C18.7267 18.784 18.7267 18.784 18.0778 19.4641C17.3982 19.8577 16.6319 19.9129 15.8547 19.9057C15.7628 19.9058 15.6707 19.9061 15.5759 19.9063C15.2747 19.9065 14.9735 19.9049 14.6723 19.9033C14.4609 19.903 14.2495 19.9028 14.038 19.9028C13.5959 19.9024 13.1538 19.9011 12.7118 19.8993C12.148 19.8969 11.5843 19.8959 11.0206 19.8956C10.4793 19.8951 9.93804 19.8939 9.39674 19.8926C9.29504 19.8924 9.19325 19.8923 9.08834 19.8921C5.6447 19.8851 5.6447 19.8851 5.08745 19.3978C4.40888 18.637 4.49864 17.5778 4.50149 16.6317C4.50185 16.4363 4.49971 16.2409 4.49748 16.0454C4.49721 15.9193 4.49721 15.7932 4.4973 15.667C4.49703 15.5545 4.49676 15.4419 4.4965 15.3259C4.53465 14.9585 4.62004 14.7344 4.79705 14.4085C5.14333 14.197 5.50806 14.2094 5.91121 14.2056Z" fill="#2D231A" stroke="#2D231A" stroke-width="0.5"/>
<path d="M11.7493 15.1865C11.3798 15.0542 11.2168 14.8232 10.9861 14.5245C10.907 14.4234 10.8278 14.3223 10.7486 14.2212C10.708 14.1689 10.6672 14.1167 10.6253 14.0628C10.4264 13.8098 10.2216 13.5613 10.0167 13.3126C9.93446 13.2124 9.85219 13.1122 9.76992 13.012C9.60325 12.8092 9.4363 12.6066 9.26927 12.4041C8.87183 11.9216 8.47643 11.4378 8.08933 10.9476C8.02578 10.8672 7.96223 10.7869 7.89672 10.704C7.7623 10.5211 7.66096 10.3473 7.56006 10.1468C7.59901 10.1471 7.59901 10.1471 7.79591 10.1482C8.0838 10.1496 8.3717 10.1507 8.65951 10.1515C8.7843 10.1519 8.90908 10.1525 9.03378 10.1532C9.21276 10.1543 9.39182 10.1548 9.5708 10.1552C9.67856 10.1556 9.78641 10.156 9.89747 10.1566C10.1449 10.1468 10.1449 10.1468 10.234 10.0614C10.242 9.90637 10.2436 9.75108 10.2428 9.59587C10.2424 9.49636 10.2421 9.39685 10.2419 9.29426C10.2411 9.18586 10.2404 9.07738 10.2396 8.96565C10.2391 8.79644 10.2386 8.62731 10.238 8.4581C10.2369 8.09951 10.2349 7.74084 10.2331 7.38225C10.2316 7.08798 10.2303 6.79371 10.2295 6.49936C10.2288 6.27838 10.2277 6.05732 10.2262 5.83626C10.2259 5.73572 10.2257 5.63509 10.2253 5.53148C10.2249 5.44316 10.2244 5.35484 10.2239 5.26378C10.2336 5.03144 10.2684 4.8208 10.3232 4.59461C10.7151 4.59247 11.1069 4.59094 11.4988 4.58991C11.6322 4.58948 11.7656 4.58889 11.899 4.5882C12.0904 4.58709 12.2818 4.58667 12.4731 4.58624C12.5308 4.58607 12.5308 4.58607 12.8225 4.58487C13.0863 4.59461 13.0863 4.59461 13.1754 4.68003C13.1865 4.84771 13.1913 5.01572 13.1937 5.18374C13.1955 5.29146 13.1972 5.39917 13.1991 5.51021C13.2006 5.6286 13.2022 5.74708 13.2036 5.86555C13.2054 5.98608 13.2073 6.10661 13.2092 6.22713C13.2142 6.54489 13.2186 6.86273 13.2228 7.18049C13.2273 7.50457 13.2323 7.82865 13.2372 8.15264C13.2468 8.78892 13.2558 9.42512 13.2645 10.0614C13.5064 10.1773 13.6967 10.1564 13.9672 10.1552C14.0191 10.155 14.0191 10.155 14.2823 10.1543C14.3913 10.1537 14.5004 10.1529 14.6127 10.1521C14.7224 10.1518 14.8321 10.1513 14.9451 10.151C15.2169 10.15 15.4886 10.1486 15.7603 10.1468C15.6283 10.4802 15.4853 10.7082 15.2422 10.9797C14.8865 11.3862 14.5463 11.801 14.2116 12.2235C13.6947 12.8748 13.1709 13.5203 12.6406 14.1615C12.5703 14.2466 12.5 14.3317 12.4275 14.4195C11.9523 14.9919 11.9523 14.9919 11.7493 15.1865Z" fill="#AFD2F0"/>
<path d="M5.15347 14.8356C5.59467 14.8356 6.03588 14.8356 6.49045 14.8356C6.49482 15.0104 6.49919 15.1853 6.50364 15.3654C6.50864 15.5353 6.51363 15.7052 6.51871 15.8751C6.52218 15.993 6.52521 16.1108 6.52807 16.2286C6.53217 16.3982 6.53743 16.5679 6.54268 16.7375C6.54545 16.8395 6.5483 16.9415 6.55115 17.0466C6.59706 17.4762 6.62442 17.4623 6.75785 17.6544C6.89128 17.8465 7.73804 17.8496 8.27551 17.846C8.31401 17.8461 8.31401 17.8461 8.50904 17.8465C8.76173 17.8468 9.01442 17.8459 9.26711 17.8449C9.44404 17.8448 9.62096 17.8448 9.79789 17.8448C10.1679 17.8447 10.538 17.8439 10.9079 17.8428C11.3807 17.8414 11.8534 17.841 12.3261 17.8411C12.6912 17.841 13.0564 17.8406 13.4215 17.84C13.5957 17.8398 13.77 17.8396 13.9442 17.8395C14.1884 17.8393 14.4325 17.8386 14.6767 17.8376C14.7122 17.8376 14.7122 17.8376 14.8919 17.8378C16.1489 17.831 16.1489 17.831 16.5203 17.5994C16.6953 17.331 16.6987 17.1415 16.7027 16.8259C16.704 16.7707 16.704 16.7707 16.7102 16.4918C16.7112 16.3757 16.7121 16.2596 16.7129 16.1435C16.7163 15.9154 16.7206 15.6873 16.725 15.4592C16.726 15.3581 16.7271 15.2569 16.728 15.1527C16.7407 14.921 16.7407 14.921 16.8298 14.8356C17.0228 14.8271 17.216 14.8245 17.4092 14.8249C17.5149 14.8246 17.6206 14.8245 17.7295 14.8242C17.9885 14.8356 17.9885 14.8356 18.0777 14.921C18.0889 15.1387 18.0945 15.3541 18.0958 15.572C18.0963 15.6381 18.0968 15.7042 18.0973 15.7723C18.0982 15.913 18.0987 16.0536 18.0991 16.1943C18.1 16.4069 18.1027 16.6195 18.1055 16.8321C18.1172 18.4658 18.1172 18.4658 17.6951 18.9945C17.3902 19.2188 17.0024 19.2027 16.6311 19.2034C16.585 19.2035 16.585 19.2035 16.352 19.2045C16.2519 19.2044 16.1518 19.2044 16.0488 19.2043C15.9956 19.2045 15.9956 19.2045 15.7271 19.2052C15.4367 19.2059 15.1463 19.2062 14.8558 19.2062C14.6742 19.2063 14.4926 19.2065 14.311 19.2067C13.677 19.2075 13.0429 19.2078 12.4089 19.2077C11.8186 19.2077 11.2284 19.2086 10.6381 19.21C10.1305 19.2111 9.6231 19.2115 9.11558 19.2115C8.8128 19.2115 8.51002 19.2117 8.20723 19.2126C7.86942 19.2135 7.5317 19.2132 7.19398 19.2127C7.09406 19.2132 6.99414 19.2136 6.89128 19.2141C5.79611 19.2099 5.79611 19.2099 5.4386 18.8672C5.00141 18.0989 5.13207 17.0326 5.14232 16.1809C5.14321 16.0498 5.14402 15.9187 5.14473 15.7876C5.14651 15.4702 5.15008 15.1529 5.15347 14.8356Z" fill="#AFD2F0"/>
<path d="M11.3148 15.8068C10.7208 15.4723 10.307 14.8631 9.8887 14.3547C9.77551 14.2194 9.66222 14.0842 9.54893 13.949C9.491 13.8792 9.43306 13.8095 9.37343 13.7377C9.22556 13.5604 9.07697 13.3836 8.92777 13.2072C8.46419 12.658 8.00899 12.1042 7.57126 11.5359C7.55147 11.5103 7.55147 11.5103 7.4512 11.381C6.79884 10.5253 6.79884 10.5253 6.7245 10.0624C6.76907 9.8275 6.76907 9.8275 6.91507 9.68622C7.18781 9.53725 7.37392 9.54195 7.68686 9.54622C7.79427 9.54707 7.90167 9.54784 8.01238 9.54869C8.12415 9.55083 8.23601 9.55305 8.35117 9.55519C8.46437 9.55638 8.57748 9.55758 8.69415 9.55877C8.97349 9.56176 9.25283 9.56595 9.53217 9.57124C9.53191 9.54195 9.53191 9.54195 9.53039 9.39366C9.52442 8.78257 9.52041 8.17149 9.51747 7.5604C9.51631 7.33242 9.51435 7.10452 9.51203 6.87663C9.50873 6.54862 9.50722 6.22061 9.50606 5.8926C9.50472 5.79104 9.5033 5.68948 9.50187 5.58484C9.50178 5.05328 9.52228 4.65566 9.79957 4.18987C10.0562 3.94395 10.318 3.98973 10.662 3.98734C10.7299 3.98657 10.7979 3.9858 10.8678 3.98504C11.0118 3.98375 11.1557 3.98299 11.2997 3.98264C11.5192 3.9817 11.7386 3.97743 11.9581 3.97316C12.0979 3.97231 12.2379 3.97171 12.3778 3.97128C12.4432 3.96966 12.5086 3.96795 12.576 3.96624C12.9315 3.96923 13.081 4.00605 13.3597 4.22489C13.8677 4.8376 13.7342 5.77729 13.7301 6.5265C13.73 6.61431 13.7299 6.70212 13.7297 6.79258C13.7292 7.06925 13.7281 7.34592 13.7269 7.62267C13.7265 7.81179 13.7261 8.00091 13.7258 8.19002C13.7248 8.65043 13.7233 9.11084 13.7214 9.57124C13.7929 9.57039 13.8644 9.56945 13.9381 9.56851C14.2614 9.56501 14.5847 9.56279 14.9079 9.56057C15.0205 9.55911 15.1331 9.55766 15.249 9.55621C15.3029 9.55595 15.3029 9.55595 15.5754 9.55459C15.6748 9.55365 15.7743 9.55279 15.8767 9.55185C16.128 9.57124 16.2446 9.5927 16.3954 9.74208C16.6951 10.039 16.3805 10.405 16.1447 10.7724C15.7253 11.3636 15.26 11.9202 14.791 12.4755C14.7433 12.5321 14.6956 12.5887 14.6465 12.647C14.1056 13.2886 13.5606 13.9272 13.0142 14.5646C12.7623 14.8617 12.5162 15.1632 12.2709 15.4655C11.9757 15.7925 11.7545 15.8716 11.3148 15.8068ZM11.804 15.0918C12.3155 14.5365 12.7812 13.9508 13.2476 13.3607C13.5168 13.02 13.7906 12.6829 14.0668 12.3474C14.1071 12.2983 14.1475 12.2493 14.189 12.1987C14.3005 12.0632 14.4121 11.9277 14.5236 11.7921C14.7326 11.5366 14.9406 11.2804 15.1475 11.0234C15.1734 10.9916 15.1734 10.9916 15.3042 10.8308C15.3536 10.7693 15.403 10.7077 15.454 10.6443C15.4979 10.5898 15.5419 10.5353 15.5873 10.4792C15.6823 10.34 15.6823 10.34 15.6823 10.1692C15.6476 10.1694 15.6476 10.1694 15.4724 10.1705C15.1598 10.1723 14.8473 10.1734 14.5347 10.1745C14.4802 10.1749 14.4802 10.1749 14.2043 10.1767C14.1524 10.1769 14.1524 10.1769 13.8892 10.1775C13.8411 10.1777 13.8411 10.1777 13.5979 10.1789C13.3649 10.1692 13.3649 10.1692 13.1866 10.0838C13.1857 10.0165 13.1847 9.94931 13.1838 9.88003C13.1751 9.24776 13.1659 8.61549 13.1564 7.98323C13.1514 7.65821 13.1467 7.3331 13.1423 7.008C13.138 6.69451 13.1334 6.38103 13.1284 6.06754C13.1266 5.9477 13.1249 5.82786 13.1234 5.70801C13.1213 5.54068 13.1185 5.37334 13.1157 5.20609C13.1151 5.15835 13.1151 5.15835 13.1116 4.91695C13.0975 4.70238 13.0975 4.70238 13.0083 4.61696C12.8041 4.60945 12.5996 4.60782 12.3952 4.60859C12.334 4.60876 12.2728 4.60885 12.2097 4.60902C12.0135 4.60944 11.8174 4.61056 11.6213 4.61167C11.4885 4.61209 11.3558 4.61244 11.2231 4.61278C10.8971 4.61372 10.5712 4.61517 10.2452 4.61696C10.1681 4.93506 10.1457 5.22753 10.1474 5.55383C10.1477 5.65437 10.148 5.755 10.1483 5.85861C10.1491 5.96641 10.1498 6.0742 10.1506 6.18516C10.151 6.3548 10.1516 6.52445 10.1521 6.69409C10.153 6.99117 10.1546 7.28817 10.1561 7.58526C10.1579 7.94103 10.1597 8.29671 10.1606 8.65248C10.1614 8.87389 10.1624 9.09529 10.1639 9.31661C10.164 9.36641 10.164 9.36641 10.1648 9.61822C10.1653 9.70629 10.1657 9.79427 10.1663 9.88507C10.1561 10.0838 10.1561 10.0838 10.067 10.1692C9.87569 10.1767 9.68423 10.1783 9.49287 10.1775C9.37646 10.1772 9.26014 10.1769 9.14035 10.1767C9.01654 10.176 8.89274 10.1752 8.76902 10.1745C8.64486 10.174 8.5207 10.1737 8.39663 10.1734C8.09179 10.1723 7.78696 10.171 7.48213 10.1692C7.76352 10.6181 8.06425 11.0374 8.40688 11.4452C8.49378 11.5499 8.58077 11.6547 8.66768 11.7594C8.70921 11.8093 8.75075 11.8591 8.79353 11.9105C8.939 12.0854 9.08268 12.2615 9.22574 12.4381C9.27422 12.4979 9.32271 12.5577 9.37272 12.6193C9.52861 12.8127 9.68361 13.0068 9.83852 13.2009C10.0327 13.4438 10.2279 13.6859 10.4235 13.9276C10.4702 13.9853 10.5169 14.0431 10.565 14.1025C10.7103 14.2814 10.8565 14.4596 11.0029 14.6376C11.0489 14.6944 11.0949 14.7512 11.1424 14.8097C11.2551 14.946 11.3737 15.0779 11.4931 15.2089C11.6714 15.2089 11.6714 15.2089 11.804 15.0918Z" fill="#2D231A" stroke="#2D231A" stroke-width="0.5"/>
</svg>
