<!-- La flèche du sac est une **silhouette pleine**, et non un contour.
     Elle était dessinée en bande fine (trois sous-chemins, règle evenodd) :
     à 28 pt dans la pastille du paywall, on ne distinguait plus la flèche du
     sac (Hugo, 19/09/2026). Le contour intérieur est retiré ; le creux devient
     plein, et la flèche se lit d'un coup d'œil. -->
<svg width="24" height="24" viewBox="0 0 24 24" fill="none" xmlns="http://www.w3.org/2000/svg">
<path fill-rule="evenodd" clip-rule="evenodd" d="M16.1416 2.81665C17.2586 2.81665 17.984 3.99386 17.4814 4.99146L16.3818 7.17407C16.1721 7.59027 15.7833 7.87636 15.3369 7.96606C15.4052 8.01272 15.471 8.06345 15.5312 8.12134L15.6445 8.24243L19.3574 12.6995C19.7147 13.1204 19.9883 13.5938 20.1748 14.1135C20.3604 14.6309 20.4521 15.1692 20.4521 15.7229C20.4521 17.0167 19.983 18.1496 19.0684 19.0657C18.153 19.9824 17.019 20.4524 15.7236 20.4524H8.27637C6.98282 20.4524 5.85044 19.9815 4.93457 19.0657C4.0187 18.1498 3.54785 17.0174 3.54785 15.7239C3.54788 15.1638 3.64614 14.6197 3.84375 14.0979C4.03671 13.5884 4.30968 13.124 4.66016 12.7092L8.35352 8.24634C8.44369 8.13738 8.54879 8.04426 8.66309 7.96606C8.21475 7.87514 7.8254 7.58584 7.61719 7.16626L6.53418 4.98364C6.03956 3.98657 6.76492 2.81665 7.87793 2.81665H16.1416Z M7.18444 6.7687C7.29979 6.77467 7.42859 6.79264 7.55651 6.82828C7.6435 6.85252 7.82511 6.9096 8.00182 7.04703L8.07702 7.11148L8.17956 7.21988C8.39595 7.47996 8.45544 7.7789 8.47545 7.92398C8.50366 8.12863 8.50183 8.40145 8.40319 8.67105C8.34645 8.82598 8.25202 8.96467 8.12877 9.07437C7.63633 9.51231 7.16922 9.94206 6.70885 10.383L8.41881 10.3371L8.95788 10.3293C9.49492 10.3345 10.0271 10.3789 10.5526 10.4621C12.5169 10.7755 13.9408 12.3456 14.1239 14.2902C14.1268 14.3212 14.1288 14.3528 14.1288 14.3839V15.0392H14.1268C14.128 15.338 14.0097 15.5619 13.9471 15.6642C13.8693 15.7916 13.7779 15.8953 13.6971 15.9728C13.6146 16.0519 13.5172 16.1287 13.41 16.1935C13.3212 16.2473 13.1439 16.3432 12.912 16.3722L12.9071 16.3732C12.4192 16.4317 12.0442 16.1809 11.8641 16.0197C11.668 15.8442 11.4091 15.5148 11.3885 15.0568C11.3883 15.052 11.3887 15.0469 11.3885 15.0421L11.3729 14.5451C11.2612 13.7848 10.692 13.2438 9.84948 13.1642L9.67565 13.1544C8.30196 13.1298 7.5132 13.1228 6.61413 13.1544L7.71764 14.1662L7.83678 14.2921C8.08306 14.5961 8.11386 14.9487 8.11901 15.0919C8.1256 15.2761 8.10426 15.6094 7.90709 15.9084C7.73909 16.1631 7.50287 16.2853 7.41979 16.3263C7.2988 16.3861 7.17318 16.4278 7.05846 16.4552C6.94616 16.4821 6.80291 16.5055 6.64733 16.5021C6.5412 16.4998 6.20623 16.4839 5.911 16.2326C4.69502 15.2008 3.55622 14.176 2.42565 13.0607L2.42663 13.0597C2.08772 12.7257 1.92095 12.2887 1.94518 11.8419C1.96827 11.4167 2.15796 11.0461 2.411 10.7746L2.41198 10.7736C3.62972 9.47104 4.85371 8.26339 6.20202 7.07242L6.2069 7.06851C6.43147 6.87261 6.68058 6.8142 6.79381 6.79312C6.93444 6.76696 7.07008 6.76282 7.18444 6.7687Z " fill="#2D231A"/>
</svg>
