<svg width="24" height="24" viewBox="0 0 24 24" fill="none" xmlns="http://www.w3.org/2000/svg">
<path d="M11.7422 9.04963C11.9511 9.0121 11.9511 9.0121 12.1705 9.04963C12.3391 9.2004 12.4178 9.32617 12.4511 9.55147C12.4611 9.75639 12.4623 9.95986 12.4608 10.165C12.4612 10.2431 12.4617 10.3211 12.4622 10.4015C12.4633 10.6594 12.4626 10.9174 12.4617 11.1752C12.4618 11.3545 12.4621 11.5338 12.4624 11.713C12.4628 12.0886 12.4623 12.4642 12.4611 12.8399C12.4596 13.3216 12.4605 13.8032 12.462 14.2848C12.4629 14.655 12.4626 15.0251 12.4619 15.3952C12.4617 15.5728 12.462 15.7505 12.4626 15.9281C12.4632 16.1762 12.4623 16.4243 12.4608 16.6724C12.4611 16.7093 12.4611 16.7093 12.4624 16.8953C12.457 17.3956 12.457 17.3956 12.297 17.6648C12.2553 17.7054 12.2136 17.746 12.1705 17.7878C11.9258 17.7614 11.7819 17.7401 11.6012 17.5674C11.443 17.2839 11.4506 17.0266 11.4547 16.7105C11.4545 16.6455 11.4543 16.5806 11.4541 16.5136C11.4538 16.2987 11.4555 16.0839 11.4571 15.869C11.4574 15.7187 11.4575 15.5684 11.4576 15.4181C11.458 15.1026 11.4592 14.787 11.4611 14.4714C11.4635 14.0701 11.4645 13.6688 11.4648 13.2675C11.4653 12.8818 11.4665 12.496 11.4678 12.1103C11.468 12.0381 11.4681 11.966 11.4683 11.8916C11.4753 9.44996 11.4753 9.44996 11.7422 9.04963Z" fill="#2D231A"/>
<path d="M9.1721 9.04932C9.45112 9.08513 9.56909 9.10363 9.77178 9.30632C9.81076 9.5043 9.81076 9.5043 9.83569 9.75943C9.84546 9.8576 9.85514 9.95578 9.86525 10.0569C9.87501 10.1661 9.88486 10.2753 9.89497 10.3879C9.9002 10.4442 9.90542 10.5005 9.91082 10.5585C10.0202 11.7367 10.0979 12.9175 10.1734 14.0985C10.1791 14.1862 10.1848 14.274 10.1906 14.3646C10.2442 15.1961 10.2952 16.0282 10.3089 16.8615C10.3108 16.967 10.3128 17.0724 10.3148 17.181C10.2835 17.4658 10.2227 17.5817 10.0288 17.7875C9.83072 17.7714 9.83072 17.7714 9.60044 17.7019C9.27165 17.3128 9.28707 16.8726 9.26214 16.3867C9.25674 16.2984 9.25143 16.2099 9.24586 16.1189C9.2289 15.8291 9.21373 15.5394 9.19883 15.2496C9.19343 15.1511 9.18803 15.0526 9.18247 14.9511C9.10502 13.5354 9.06296 12.1217 9.06501 10.7038C9.0651 10.6239 9.06518 10.5441 9.06518 10.4617C9.06578 10.2387 9.06716 10.0156 9.06904 9.79258C9.06938 9.72653 9.06981 9.66056 9.07015 9.59254C9.07624 9.14518 9.07624 9.14518 9.1721 9.04932Z" fill="#2D231A"/>
<path d="M14.8338 9.04932C14.5547 9.08513 14.4368 9.10363 14.2341 9.30632C14.1951 9.5043 14.1951 9.5043 14.1702 9.75943C14.1604 9.8576 14.1507 9.95578 14.1406 10.0569C14.1308 10.1661 14.121 10.2753 14.1109 10.3879C14.1057 10.4442 14.1004 10.5005 14.095 10.5585C13.9856 11.7367 13.9079 12.9175 13.8325 14.0985C13.8268 14.1862 13.8211 14.274 13.8152 14.3646C13.7617 15.1961 13.7106 16.0282 13.6969 16.8615C13.6951 16.967 13.6931 17.0724 13.691 17.181C13.7224 17.4658 13.7831 17.5817 13.9771 17.7875C14.1751 17.7714 14.1751 17.7714 14.4054 17.7019C14.7342 17.3128 14.7188 16.8726 14.7437 16.3867C14.7491 16.2984 14.7544 16.2099 14.76 16.1189C14.777 15.8291 14.7921 15.5394 14.807 15.2496C14.8124 15.1511 14.8178 15.0526 14.8234 14.9511C14.9008 13.5354 14.9429 12.1217 14.9408 10.7038C14.9408 10.6239 14.9407 10.5441 14.9407 10.4617C14.9401 10.2387 14.9387 10.0156 14.9368 9.79258C14.9365 9.72653 14.936 9.66056 14.9357 9.59254C14.9296 9.14518 14.9296 9.14518 14.8338 9.04932Z" fill="#2D231A"/>
<path d="M13.231 4.01807C13.828 4.02218 14.2073 4.20223 14.6558 4.59424C14.9944 4.96775 14.9421 5.38582 14.9282 5.86377C14.9276 5.90158 14.9282 5.90189 14.9253 6.09326C14.9223 6.27918 14.9175 6.46513 14.9126 6.65088C15.0201 6.64959 15.1279 6.64834 15.2388 6.64697C15.6375 6.64226 16.0363 6.63871 16.4351 6.63623C16.6078 6.63495 16.7809 6.63357 16.9536 6.63135C17.2018 6.62826 17.4505 6.62669 17.6987 6.62549C17.737 6.6249 17.7381 6.625 17.9331 6.62158H18.1509C18.2142 6.62098 18.2781 6.62014 18.3433 6.61963C18.5593 6.65946 18.6341 6.73601 18.7671 6.90771C18.8045 7.12189 18.8045 7.12225 18.7671 7.33643C18.5787 7.51872 18.4662 7.58886 18.2036 7.61865C18.1295 7.61575 18.129 7.61481 17.7573 7.6001C17.7261 7.5989 17.7258 7.59952 17.5679 7.59326C17.5685 7.62266 17.5684 7.62292 17.5718 7.77197C17.5826 8.69899 17.5172 9.61901 17.4556 10.5435C17.4317 10.9088 17.4077 11.2747 17.3843 11.6401C17.3782 11.7347 17.3729 11.8298 17.3667 11.9272C17.3212 12.6442 17.2805 13.3614 17.2427 14.0786C17.2399 14.1305 17.24 14.1307 17.2261 14.3931C17.2044 14.8014 17.1831 15.2103 17.1626 15.6187C16.9997 18.8575 16.9992 18.8581 16.3423 19.5327C15.8194 19.8489 15.4064 19.9674 14.7954 19.9663C14.7264 19.9672 14.6575 19.9683 14.5864 19.9692C14.3599 19.9716 14.1334 19.9719 13.9067 19.9722C13.7482 19.973 13.5888 19.9742 13.4302 19.9751C13.0985 19.9766 12.7668 19.9772 12.4351 19.9771C12.0112 19.9771 11.5865 19.9805 11.1626 19.9849C10.8352 19.9878 10.5076 19.988 10.1802 19.9878C10.0241 19.9881 9.86752 19.9897 9.71143 19.9917C8.24069 20.0087 8.24027 20.009 7.67627 19.5513C7.13287 18.9928 7.01053 18.3873 6.96436 17.6401C6.95939 17.5679 6.95395 17.4957 6.94873 17.4214C6.93264 17.1868 6.91798 16.9521 6.90283 16.7173C6.89187 16.555 6.88077 16.3922 6.86963 16.23C6.84214 15.8254 6.81495 15.4207 6.78857 15.0161C6.77478 14.8045 6.76055 14.5929 6.74658 14.3813C6.74247 14.3185 6.73906 14.2557 6.73486 14.1909C6.7269 14.0703 6.71842 13.9493 6.71045 13.8286C6.69255 13.5585 6.67485 13.2882 6.65771 13.0181C6.63237 12.6251 6.60672 12.2341 6.55811 11.8433C6.4936 11.2963 6.48505 10.7449 6.46826 10.1948C6.46648 10.1412 6.46691 10.14 6.45752 9.8667C6.4332 9.10851 6.42687 8.35179 6.43115 7.59326C6.29547 7.59866 6.15952 7.60349 6.02393 7.60889C5.75246 7.61958 5.61378 7.6156 5.37744 7.47705C5.23225 7.3358 5.23182 7.33611 5.19971 7.1167C5.23181 6.90799 5.23186 6.90779 5.40283 6.73682C5.56329 6.71626 5.56411 6.71617 5.76123 6.71729C5.79757 6.71729 5.7984 6.7172 5.98389 6.71729C6.06364 6.71814 6.144 6.7183 6.22607 6.71924C6.3075 6.71949 6.38924 6.71996 6.47314 6.72021C6.73392 6.72116 6.9946 6.72393 7.25537 6.72607C7.43197 6.72693 7.60904 6.72726 7.78564 6.72803C8.21939 6.72991 8.65366 6.7333 9.0874 6.73682C9.08535 6.63864 9.08262 6.54005 9.08057 6.43896C9.07902 6.3079 9.07812 6.17648 9.07666 6.04541C9.07521 5.9811 9.07323 5.91637 9.07178 5.8501C9.06784 5.39273 9.07692 4.90643 9.37549 4.53369C9.74646 4.26171 10.0219 4.06179 10.4878 4.05322C10.5607 4.0516 10.6335 4.05005 10.7085 4.04834C10.7868 4.04757 10.8652 4.04716 10.9458 4.04639C11.0271 4.04544 11.109 4.04351 11.1929 4.04248C11.3647 4.04094 11.5366 4.04024 11.7085 4.03955C11.97 4.03784 12.2321 4.03225 12.4937 4.02686C12.6613 4.02574 12.829 4.02559 12.9966 4.0249C13.074 4.02276 13.1513 4.02029 13.231 4.01807ZM7.1167 7.59326C7.2128 9.51554 7.21265 9.5158 7.27979 10.1968C7.36031 11.0702 7.42106 11.9446 7.47803 12.8198C7.48711 12.9578 7.49638 13.0959 7.50537 13.2339C7.54255 13.802 7.57948 14.3707 7.61572 14.939C7.63824 15.2915 7.66071 15.6441 7.68408 15.9966C7.69273 16.1289 7.70125 16.2617 7.70947 16.394C7.735 16.8021 7.76636 17.2095 7.80225 17.6167C7.80994 17.715 7.81765 17.8133 7.82568 17.9146C7.87073 18.3086 7.92085 18.6552 8.18701 18.9614C8.71859 19.3337 9.4948 19.2274 10.1157 19.2202C10.2674 19.2201 10.4192 19.2209 10.5708 19.2212C10.8881 19.2212 11.2056 19.2194 11.5229 19.2163C11.9291 19.2124 12.3354 19.2122 12.7417 19.2134C13.0547 19.2139 13.3682 19.2122 13.6812 19.2104C13.8309 19.2099 13.9808 19.2101 14.1304 19.2104C14.3397 19.2104 14.5491 19.2083 14.7583 19.2056C14.8198 19.206 14.8815 19.206 14.9448 19.2065C15.3564 19.1978 15.5674 19.1093 15.855 18.8159C16.2957 18.0133 16.2235 17.0315 16.2671 16.1372C16.322 15.0145 16.3831 13.8924 16.4595 12.771C16.4629 12.7199 16.4629 12.7196 16.48 12.4614C16.4866 12.3674 16.4937 12.2732 16.5005 12.1763C16.5033 12.1357 16.5029 12.1354 16.5171 11.9302C16.5399 11.7052 16.5646 11.6266 16.5767 11.5093C16.6102 11.1811 16.6548 10.9208 16.6714 10.6255C16.6751 10.5633 16.6793 10.5001 16.6831 10.436C16.6908 10.3049 16.6981 10.1737 16.7056 10.0425C16.7168 9.84385 16.7288 9.64532 16.7407 9.44678C16.7482 9.31869 16.7548 9.1901 16.7622 9.06201C16.764 9.0328 16.7642 9.03197 16.7729 8.88428C16.7969 8.45183 16.7974 8.0282 16.7974 7.59326H7.1167ZM10.5483 4.9917C10.4854 4.99161 10.4239 4.99081 10.3628 4.99072C10.2004 5.02274 10.2004 5.02325 9.94385 5.27979V6.65088H14.0552C14.0552 6.16477 14.1238 5.65604 13.9702 5.19482C13.7132 5.02349 13.7128 5.02276 13.5503 5.00049C13.3958 4.99946 13.3953 4.99968 13.3647 4.99951C13.2934 4.99866 13.2241 4.99833 13.1548 4.99756C13.0779 4.99764 13.0029 4.99756 12.9282 4.99756C12.7704 4.99687 12.6125 4.99612 12.4546 4.99561C12.2054 4.9962 11.9558 4.99668 11.7065 4.99463C11.5439 4.99317 11.381 4.99196 11.2183 4.9917C11.0236 4.99187 11.0232 4.9917 10.9849 4.9917C10.9079 4.99084 10.833 4.99052 10.7583 4.98975C10.5833 4.99111 10.5826 4.99145 10.5483 4.9917Z" fill="#2D231A"/>
</svg>
